<svg width="477" height="96" viewBox="0 0 477 96" fill="none" xmlns="http://www.w3.org/2000/svg">
<mask id="path-1-inside-1_4157_5920" fill="white">
<path d="M0 10.6371C0 4.76239 4.76239 0 10.6371 0H465.363C471.238 0 476 4.76239 476 10.6371V109.451H0V10.6371Z"/>
</mask>
<path d="M0 10.6371C0 4.76239 4.76239 0 10.6371 0H465.363C471.238 0 476 4.76239 476 10.6371V109.451H0V10.6371Z" fill="#282625"/>
<path d="M-2.34748 10.6371C-2.34748 3.46592 3.46592 -2.34748 10.6371 -2.34748H465.363C472.534 -2.34748 478.347 3.46592 478.347 10.6371H473.653C473.653 6.05887 469.941 2.34748 465.363 2.34748H10.6371C6.05887 2.34748 2.34748 6.05887 2.34748 10.6371H-2.34748ZM2.34748 10.6371M476 109.451H0H476M-2.34748 109.451V10.6371C-2.34748 3.46592 3.46592 -2.34748 10.6371 -2.34748V2.34748C6.05887 2.34748 2.34748 6.05887 2.34748 10.6371V109.451H-2.34748ZM465.363 -2.34748C472.534 -2.34748 478.347 3.46592 478.347 10.6371V109.451H473.653V10.6371C473.653 6.05887 469.941 2.34748 465.363 2.34748V-2.34748Z" fill="#6A6767" mask="url(#path-1-inside-1_4157_5920)"/>
<path d="M0 21.6426H476.82V96H0V21.6426Z" fill="url(#paint0_linear_4157_5920)"/>
<circle cx="21.1211" cy="19.8457" r="4.12112" fill="#F15959"/>
<circle cx="33.3633" cy="19.8457" r="4.12112" fill="#F1C659"/>
<circle cx="45.6055" cy="19.8457" r="4.12112" fill="#76F38A"/>
<defs>
<linearGradient id="paint0_linear_4157_5920" x1="238.41" y1="96" x2="238.41" y2="21.6426" gradientUnits="userSpaceOnUse">
<stop offset="0.120192" stop-color="#201F1E"/>
<stop offset="0.331731" stop-color="#201F1E"/>
<stop offset="1" stop-color="#201F1E" stop-opacity="0"/>
</linearGradient>
</defs>
</svg>
